<svg width="28" height="32" viewBox="0 0 359 424" fill="none" xmlns="http://www.w3.org/2000/svg">
<path d="M152.535 70.8709C151.969 71.1282 150.734 72.1575 149.756 73.1868C148.315 74.6793 148.006 75.3998 148.006 77.2011C148.006 79.9802 148.778 81.5241 150.888 82.7593C152.432 83.6857 153.564 83.7886 166.43 83.7886C180.995 83.7886 183.311 84.0459 187.891 86.3104C191.288 87.9573 193.81 90.2732 196.383 94.133C199.214 98.4561 200.14 101.39 200.14 105.97C200.14 107.874 200.346 109.572 200.603 109.727C200.86 109.933 200.963 109.624 200.809 109.058C200.655 108.543 200.86 107.926 201.221 107.72C201.632 107.462 201.735 107.514 201.478 107.874C201.272 108.234 201.375 108.492 201.632 108.492C201.941 108.492 202.199 108.234 202.199 107.977C202.199 107.668 202.456 107.462 202.816 107.462C203.125 107.462 203.228 107.617 203.073 107.771C202.559 108.286 203.742 110.087 204.36 109.727C204.72 109.521 204.669 109.264 204.257 109.006C203.897 108.801 203.794 108.337 204 107.977C204.309 107.514 204.669 107.668 205.389 108.543C206.161 109.572 206.264 109.624 205.955 108.749C205.647 107.823 205.698 107.823 206.47 108.44C207.191 109.006 207.242 109.315 206.727 109.984C206.316 110.499 206.522 110.447 207.242 109.83C208.632 108.646 210.484 108.337 210.073 109.367C209.764 110.139 210.381 110.242 211.462 109.521C211.977 109.212 212.028 109.006 211.617 109.006C211.256 109.006 210.948 108.801 210.948 108.492C210.948 108.234 211.308 108.131 211.822 108.337C212.543 108.646 212.646 108.183 212.337 103.551C211.822 94.3904 207.757 85.5899 201.118 79.1053C199.111 77.1496 191.803 73.0324 188.2 71.7973C185.267 70.8709 183.517 70.7165 169.261 70.6136C160.615 70.5107 153.101 70.6136 152.535 70.8709Z" fill="#1596C1"/>
<path d="M159.534 93.9272C156.189 94.7506 154.542 95.7284 152.586 97.9929C151.403 99.4339 151.248 99.8971 151.763 100.515C152.329 101.184 152.278 101.235 151.557 100.978C151.094 100.823 150.734 100.875 150.682 101.081C150.682 101.338 150.579 101.956 150.476 102.419C150.373 102.933 150.528 103.448 150.734 103.603C150.991 103.757 151.094 103.397 150.991 102.831C150.888 102.264 150.991 101.801 151.248 101.801C151.917 101.801 152.175 102.985 151.66 103.963C151.351 104.632 151.403 104.889 152.02 104.889C152.844 104.889 152.895 105.918 152.072 106.485C151.814 106.69 152.381 106.999 153.255 107.205C154.182 107.411 155.057 107.874 155.16 108.234C155.314 108.595 155.777 109.058 156.189 109.212C156.652 109.367 156.807 109.264 156.652 109.006C156.137 108.131 157.681 106.896 158.402 107.617C158.814 108.029 158.968 108.029 158.968 107.565C158.968 107.205 159.225 106.948 159.534 106.948C159.791 106.948 159.894 107.257 159.689 107.565C159.38 108.08 159.431 108.08 160.049 107.617C160.666 107.102 160.975 107.102 161.541 107.617C162.056 108.08 162.107 108.08 161.85 107.565C161.644 107.257 161.747 106.948 162.004 106.948C162.313 106.948 162.571 106.485 162.571 105.918C162.571 105.352 162.776 104.889 163.034 104.889C163.291 104.889 163.806 104.117 164.166 103.191C164.526 102.316 165.195 101.287 165.658 100.926C166.225 100.463 166.225 100.309 165.761 100.257C165.247 100.257 165.247 100.103 165.761 99.5368C166.122 99.1251 166.585 98.9192 166.739 99.0222C166.945 99.1251 167.254 98.8678 167.408 98.4046C168.798 94.8021 164.835 92.5376 159.534 93.9272ZM160.152 105.249C159.843 106.073 159.894 106.073 160.666 105.455C161.181 105.044 161.696 104.889 161.902 105.095C162.056 105.249 161.953 105.404 161.644 105.404C161.335 105.404 161.181 105.764 161.387 106.227C161.644 106.948 161.541 106.999 160.666 106.536C160.1 106.227 159.431 106.124 159.225 106.33C159.02 106.536 159.122 106.176 159.431 105.507C160.152 104.169 160.615 103.963 160.152 105.249Z" fill="#1596C1"/>
<path d="M52.4358 90.4276V128.409L51.0977 130.416C48.1128 134.842 43.4809 137.312 38.0771 137.312C34.6805 137.312 30.3059 135.459 27.0122 132.577C24.6448 130.467 24.1816 128.614 24.1302 121.101C24.0787 116.006 23.9758 115.285 22.9465 114.101C21.0937 111.94 17.3368 109.572 14.8665 109.058C8.1246 107.617 0.970984 112.506 0.147547 119.093C-0.315637 122.85 0.404871 140.606 1.02245 140.812C1.27977 140.915 1.3827 141.223 1.17684 141.481C1.02245 141.738 1.17684 141.944 1.43417 141.944C1.74296 141.944 2.00028 141.635 2.00028 141.275C2.00028 140.863 2.20614 140.915 2.51493 141.429C3.23544 142.561 3.13251 144.672 2.25761 145.855C1.84589 146.473 1.64003 147.09 1.84589 147.296C2.15468 147.554 2.20614 148.223 2.412 152.494C2.51493 153.832 2.72079 154.193 3.2869 153.987C3.69862 153.781 4.05888 153.935 4.05888 154.244C4.05888 154.553 3.75009 154.81 3.4413 154.81C2.97811 154.81 3.02958 155.016 3.54423 155.325C4.21327 155.788 4.21327 155.839 3.54423 155.839C2.87518 155.839 2.87518 155.942 3.54423 156.303C3.95595 156.611 4.47059 156.663 4.77938 156.508C5.08817 156.303 5.13964 156.56 4.88231 157.126C4.57352 158.052 4.57352 158.052 5.65429 157.075L6.83798 156.097L5.65429 158.001C5.03671 159.082 4.72792 159.957 5.03671 159.957C5.3455 159.957 5.60282 159.648 5.60282 159.288C5.60282 158.927 6.066 158.31 6.63212 157.898C7.19823 157.486 7.66141 156.817 7.66141 156.405C7.66141 155.839 7.91874 155.994 8.48485 156.766C8.94803 157.435 9.15389 158.258 8.9995 158.67C8.8451 159.133 9.05096 159.288 9.77147 159.185C10.492 159.03 10.7493 159.288 10.7493 160.06C10.7493 160.831 11.0066 161.037 11.7786 160.831C12.2932 160.677 12.8594 160.831 12.9108 161.089C13.0138 161.398 13.4255 161.243 13.7857 160.78C14.4548 160.008 14.3518 159.957 12.9623 160.162C11.8815 160.368 11.4183 160.265 11.4183 159.802C11.4183 159.03 11.4183 159.03 15.2782 158.876C17.2853 158.773 17.9544 158.567 17.7485 158.052C17.5941 157.692 17.8 157.383 18.2117 157.383C19.0351 157.383 20.1674 155.634 19.6013 155.119C19.4469 154.913 19.6527 154.913 20.1674 155.067C20.8879 155.376 20.7849 155.685 19.4469 157.383C18.469 158.567 18.0058 159.596 18.2117 160.008C18.469 160.42 18.4176 160.523 18.0573 160.265C17.3368 159.802 17.2853 160.471 17.9544 161.501C18.3146 162.067 18.469 162.067 18.469 161.603C18.469 161.243 18.7264 161.089 18.9837 161.243C19.2925 161.449 19.3954 161.809 19.241 162.067C19.0866 162.324 19.2925 162.375 19.7557 162.17C20.4247 161.912 20.4762 161.809 19.91 161.449C19.3439 161.089 19.3439 160.986 19.9615 160.986C20.3218 160.986 20.5276 160.677 20.3218 160.214C20.1674 159.802 20.2703 159.442 20.5276 159.442C20.8364 159.442 21.0423 159.802 21.0423 160.265C21.0423 160.677 21.1967 160.934 21.454 160.831C21.6599 160.677 22.3804 160.831 23.1009 161.089C24.336 161.552 24.336 161.603 23.4097 162.324C22.8435 162.684 22.5348 163.147 22.6891 163.353C22.8435 163.508 23.6155 162.993 24.336 162.272C25.777 160.831 26.1888 159.905 24.9021 160.986C24.2846 161.501 24.1302 161.501 24.1302 160.78C24.1302 160.317 23.9243 159.957 23.6155 159.957C23.3582 159.957 23.1009 159.699 23.1009 159.39C23.1009 158.979 23.4097 159.03 23.9758 159.493C24.439 159.905 25.3139 160.214 25.88 160.214C26.6005 160.214 26.9093 160.523 26.8063 161.14C26.7034 161.603 26.9093 162.015 27.2181 162.015C27.4754 162.015 27.7327 161.706 27.7842 161.346C27.7842 161.037 27.99 161.192 28.2473 161.758C28.8649 163.147 28.8649 163.662 28.2988 163.353C28.0415 163.147 27.6812 163.353 27.5783 163.662C27.3724 164.125 26.9607 163.971 26.2917 163.096C25.5712 162.221 25.3139 162.118 25.3139 162.736C25.3139 163.199 25.5197 163.559 25.777 163.559C26.0344 163.559 26.1373 164.074 25.9829 164.691C25.8285 165.36 25.8285 165.566 25.9829 165.206C26.1373 164.897 27.1666 164.588 28.2988 164.588C30.4089 164.588 30.7691 164.125 29.6369 162.942C29.2766 162.581 28.9679 161.809 28.9164 161.243C28.9164 160.677 28.762 159.802 28.5047 159.288C28.093 158.258 28.9164 158.155 32.1072 158.927C35.9671 159.854 45.1278 159.596 49.5538 158.413C60.7731 155.428 69.4707 147.399 73.3306 136.54L74.7716 132.423L74.9774 92.3832L75.1318 52.3951H63.8096H52.4358V90.4276Z" fill="#4015EC"/>
<path d="M282.998 91.7142C282.998 128.872 283.05 131.188 283.976 134.893C285.366 140.143 287.579 144.26 291.336 148.326C296.122 153.575 299.57 155.634 308.731 158.567C313.157 159.957 322.369 160.111 325.405 158.773C326.486 158.31 327.773 157.898 328.236 157.898C329.059 157.898 331.272 153.523 330.964 152.546C330.861 152.288 330.964 151.722 331.118 151.31C331.324 150.744 331.53 150.693 332.096 151.156C332.61 151.619 332.919 151.619 333.177 151.208C333.382 150.899 333.846 150.744 334.206 150.899C334.618 151.053 335.029 150.641 335.184 149.921C335.39 149.097 335.75 148.789 336.264 148.943C336.676 149.149 336.882 149.458 336.728 149.767C336.573 150.024 336.728 150.23 337.088 150.127C338.477 149.972 339.61 150.178 339.61 150.641C339.61 150.847 339.095 151.002 338.426 150.95C337.654 150.847 337.191 151.053 337.191 151.516C337.191 151.877 337.345 152.082 337.551 151.98C337.757 151.877 338.22 152.34 338.58 153.009C338.941 153.729 339.507 154.295 339.764 154.295C340.021 154.295 339.97 153.987 339.661 153.575C339.147 152.957 339.301 152.649 340.433 151.928C342.234 150.693 343.006 150.641 343.83 151.568C344.344 152.185 344.293 152.288 343.675 152.237C343.315 152.185 342.492 152.134 341.926 152.185C341.051 152.237 341.154 152.391 342.389 153.009C343.727 153.729 343.933 153.729 344.499 152.906C344.859 152.391 345.065 151.825 344.962 151.619C344.808 151.362 345.219 151.413 345.888 151.671C347.226 152.185 349.697 151.208 349.028 150.487C348.822 150.23 348.976 150.178 349.388 150.281C349.8 150.436 350.109 150.847 350.006 151.156C349.954 151.516 350.109 151.671 350.417 151.465C350.675 151.31 350.932 150.744 350.932 150.281C350.983 149.458 350.983 149.458 351.498 150.281C352.064 151.31 353.557 150.95 353.145 149.869C352.991 149.458 353.042 148.789 353.196 148.326C353.454 147.656 353.66 147.605 354.277 148.12C354.74 148.48 355.152 148.686 355.255 148.583C355.461 148.377 356.645 138.496 357.674 128.151C358.291 122.336 358.24 121.615 357.365 118.991C356.181 115.439 354.174 112.66 351.395 110.756C349.594 109.521 348.616 109.264 345.528 109.109C341.359 108.903 339.507 109.521 336.625 112.146C333.846 114.667 332.765 117.652 333.074 122.233C333.537 129.335 331.684 132.989 326.332 135.614C323.81 136.849 322.781 137.055 319.024 137.055C315.473 137.055 314.238 136.849 312.591 135.922C309.554 134.224 307.959 132.68 306.724 130.261C305.643 128.1 305.643 127.74 305.643 90.2217V52.395L294.321 52.4465H282.998V91.7142ZM346.3 149.869C346.3 150.487 345.785 150.59 344.344 150.23C344.242 150.178 344.344 149.921 344.499 149.664C344.962 148.892 346.3 149.046 346.3 149.869Z" fill="#4015EC"/>
<path d="M117.024 144.466C109.047 145.289 100.144 148.84 93.4018 153.884C89.2847 156.972 84.344 163.096 81.7193 168.448C78.0138 175.962 75.7494 189.137 77.1389 195.622C77.8595 199.327 80.3812 203.084 83.0059 204.371C87.3805 206.635 93.9165 205.297 96.4897 201.592C98.7027 198.349 99.2174 196.188 99.2688 189.806C99.2688 183.733 99.7835 181.417 102.357 176.425C103.746 173.749 107.761 170.25 111.981 168.139C115.429 166.441 115.583 166.39 121.913 166.39C128.192 166.39 128.449 166.441 131.64 168.139C138.022 171.433 142.705 177.712 144.043 184.66C144.352 186.255 144.455 189.343 144.249 191.659C143.94 195.467 144.043 196.085 145.227 198.607C146.977 202.261 147.491 202.878 150.219 204.319C154.645 206.635 160.872 205.297 163.806 201.489C166.842 197.526 167.408 191.453 165.658 181.52C164.012 172.154 162.21 167.985 157.218 161.501C153.873 157.229 152.02 155.479 146.616 151.825C138.331 146.113 127.369 143.436 117.024 144.466Z" fill="#4015EC"/>
<path d="M229.218 144.569C212.44 147.245 199.059 157.692 193.501 172.617C190.413 180.851 189.538 191.607 191.391 197.732C192.935 202.672 195.302 204.782 200.191 205.503C203.691 206.018 206.522 205.04 209.146 202.415C211.977 199.584 213.058 196.239 212.697 191.71C212.286 187.542 213.521 181.778 215.682 177.558C217.689 173.543 221.343 170.095 225.872 168.037C228.754 166.698 229.938 166.441 234.364 166.235C238.584 166.081 240.077 166.235 242.444 167.11C248.723 169.272 253.355 173.44 256.082 179.307C257.369 182.086 257.523 183.013 257.781 190.063C257.986 195.93 258.244 198.143 258.913 199.379C261.795 204.731 268.948 206.944 274.404 204.216C277.131 202.827 279.653 199.533 280.219 196.6C280.785 193.717 280.065 181.057 279.241 178.484C278.83 177.197 278.315 175.499 278.109 174.624C277.44 171.742 273.786 164.794 271.213 161.5C265.037 153.678 257.523 148.789 246.973 145.804C241.724 144.311 234.21 143.797 229.218 144.569Z" fill="#4015EC"/>
<path d="M353.968 149.715C354.226 150.024 354.329 151.259 354.226 152.391L354.071 154.553L354.483 152.494C354.843 150.95 354.792 150.281 354.226 149.767C353.814 149.458 353.711 149.406 353.968 149.715Z" fill="#4015EC"/>
<path d="M331.375 151.619C331.375 151.979 331.633 152.237 331.941 152.237C332.353 152.237 332.302 152.546 331.838 153.112C331.221 153.884 331.221 153.935 332.044 153.626C332.662 153.421 332.919 153.575 332.919 154.192C332.919 154.964 333.022 154.964 333.434 154.295C333.743 153.781 333.743 153.472 333.434 153.369C333.125 153.266 333.177 152.751 333.537 152.082C334.051 151.105 334 151.053 333.331 151.568C332.765 152.082 332.456 152.082 331.993 151.619C331.53 151.156 331.375 151.156 331.375 151.619Z" fill="#4015EC"/>
<path d="M9.97733 161.964C9.82294 162.221 9.97733 162.633 10.2861 162.839C10.6978 163.096 10.7493 162.993 10.492 162.53C10.2347 162.067 10.2861 161.964 10.6978 162.221C11.161 162.53 11.161 162.787 10.7493 163.302C9.97733 164.228 11.8301 164.691 12.705 163.765C13.4255 162.993 13.5284 162.324 12.8594 162.736C12.602 162.89 12.1389 162.684 11.7786 162.272C11.0581 161.398 10.4405 161.295 9.97733 161.964Z" fill="#4015EC"/>
<path d="M15.1238 163.971C14.6092 164.485 14.8665 164.897 15.7929 164.897C16.3075 164.897 16.7707 164.64 16.7707 164.331C16.7707 163.713 15.587 163.508 15.1238 163.971Z" fill="#4015EC"/>
<path d="M96.1809 0.261114C86.0424 1.95945 73.4849 8.13524 67.0518 14.5169C58.2513 23.2659 52.4358 36.8526 52.4358 48.6381V52.395H63.7581H75.0804V50.954C75.0804 48.6381 76.5728 41.6903 77.4477 39.889C81.5135 31.7061 89.0788 25.5304 97.1588 23.832C102.768 22.6483 255.31 22.6483 260.92 23.832C265.809 24.8613 270.029 27.2287 273.94 30.9856C279.962 36.9041 282.484 42.4623 282.484 49.7703C282.484 52.1377 282.69 53.4243 282.947 53.0126C283.256 52.4979 284.439 52.3435 286.91 52.395C288.865 52.4465 293.909 52.4979 298.129 52.4465L305.797 52.395L305.437 46.8883C304.716 34.6396 299.827 23.9349 290.975 15.0315C286.807 10.8114 284.439 9.11307 278.161 5.87078C273.066 3.19461 267.456 1.18748 263.081 0.466974C260.199 0.0037901 98.96 -0.202069 96.1809 0.261114Z" fill="#6B15EC"/>
<path d="M1.64002 141.738C0.919513 142.51 0.816584 144.208 1.43416 145.804C1.84588 146.782 1.84588 146.782 2.41199 145.701C3.59569 143.539 2.92664 140.348 1.64002 141.738Z" fill="#6B15EC"/>
<path d="M353.145 148.48C352.991 148.84 352.991 149.458 353.145 149.869C353.557 150.95 352.064 151.31 351.498 150.281C350.983 149.458 350.983 149.458 350.932 150.281C350.932 150.744 350.675 151.31 350.417 151.465C350.108 151.671 349.954 151.516 350.006 151.156C350.108 150.847 349.8 150.436 349.388 150.281C348.976 150.178 348.822 150.23 349.028 150.487C349.697 151.208 347.226 152.185 345.888 151.671C345.219 151.413 344.808 151.362 344.962 151.619C345.065 151.825 344.859 152.391 344.499 152.906C343.933 153.729 343.727 153.729 342.389 153.009C341.154 152.391 341.051 152.237 341.926 152.185C342.492 152.134 343.315 152.185 343.675 152.237C344.293 152.288 344.344 152.185 343.83 151.568C343.006 150.641 342.234 150.693 340.433 151.928C339.301 152.649 339.146 152.957 339.661 153.575C339.97 153.987 340.021 154.295 339.764 154.295C339.507 154.295 338.941 153.729 338.58 153.009C338.22 152.34 337.757 151.877 337.551 151.979C337.345 152.082 337.191 151.877 337.191 151.516C337.191 151.053 337.654 150.847 338.426 150.95C339.095 151.002 339.61 150.847 339.61 150.641C339.61 150.178 338.477 149.972 337.088 150.127C336.728 150.23 336.573 150.024 336.728 149.766C336.882 149.458 336.676 149.149 336.264 148.943C335.75 148.789 335.39 149.097 335.184 149.921C335.029 150.641 334.618 151.053 334.206 150.899C333.846 150.744 333.382 150.899 333.177 151.208C332.919 151.619 332.61 151.619 332.096 151.156C331.53 150.693 331.324 150.744 331.066 151.413C330.861 151.877 330.861 152.391 331.015 152.546C331.169 152.7 330.655 154.244 329.831 155.994C329.059 157.744 328.287 159.854 328.082 160.729C327.721 162.375 326.383 166.081 324.325 171.021C323.656 172.72 322.832 174.778 322.472 175.653C322.112 176.477 320.362 180.182 318.458 183.888C314.907 190.99 311.304 196.6 306.672 202.364C305.128 204.319 302.915 207.098 301.783 208.539C296.328 215.487 282.844 227.581 274.507 232.934C272.551 234.169 269.978 235.867 268.845 236.639C264.265 239.727 247.796 247.498 242.856 248.939C240.746 249.557 237.709 250.535 236.165 251.101C228.137 254.086 218.05 256.453 205.286 258.306C198.39 259.335 195.354 259.49 182.899 259.438C174.613 259.438 167.511 259.181 166.173 258.872C164.887 258.563 161.799 258.049 159.225 257.74C151.712 256.865 143.477 254.961 132.464 251.512C124.59 249.094 112.598 244.874 111.878 244.359C111.62 244.102 110.025 243.535 108.43 243.072C106.062 242.403 104.93 242.352 102.614 242.763C101.07 243.072 99.3718 243.535 98.8571 243.793C98.3939 244.05 96.2324 244.668 94.1223 245.131C92.0123 245.594 88.3068 246.417 85.888 246.984C80.8959 248.116 70.9632 250.226 65.3535 251.307C63.2434 251.77 61.4422 251.976 61.2878 251.821C60.979 251.512 62.7288 248.167 67.8753 239.47C70.0368 235.764 72.0954 232.059 72.4556 231.132C73.6393 228.25 73.2791 225.162 71.2205 220.839C69.0075 216.208 68.1326 215.127 64.2727 212.451C58.5601 208.488 48.1128 196.702 41.8855 187.233C39.3638 183.373 35.9156 176.837 32.1587 168.808C30.203 164.588 30.1515 164.588 28.2473 164.588C27.1666 164.588 26.1373 164.897 25.9829 165.206C25.8285 165.566 25.8285 165.36 25.9829 164.691C26.1373 164.074 26.0344 163.559 25.777 163.559C25.5197 163.559 25.3138 163.199 25.3138 162.736C25.3138 162.118 25.5712 162.221 26.2917 163.096C27.0637 164.125 27.2695 164.228 27.7327 163.559C27.99 163.147 28.2473 162.993 28.2473 163.199C28.2473 163.405 28.5561 163.302 28.9679 162.941C29.3796 162.581 29.5854 162.067 29.431 161.809C29.2766 161.603 28.9679 161.706 28.7105 162.067C28.3503 162.633 28.2473 162.53 28.1959 161.758C28.1959 161.192 28.0415 161.037 27.8871 161.346C27.5268 162.324 26.6519 162.17 26.8063 161.14C26.9093 160.523 26.6005 160.214 25.88 160.214C25.3138 160.214 24.4389 159.905 23.9758 159.493C23.4096 159.03 23.1009 158.979 23.1009 159.39C23.1009 159.699 23.3582 159.957 23.6155 159.957C23.9243 159.957 24.1302 160.317 24.1302 160.78C24.1302 161.5 24.2846 161.5 24.9021 160.986C26.1888 159.905 25.777 160.831 24.336 162.272C23.6155 162.993 22.8435 163.508 22.6891 163.353C22.5347 163.147 22.8435 162.684 23.4096 162.324C24.336 161.603 24.336 161.552 23.1009 161.089C22.3804 160.831 21.6598 160.677 21.4025 160.831C21.1967 160.934 21.0423 160.677 21.0423 160.265C21.0423 159.802 20.8364 159.442 20.5276 159.442C20.2703 159.442 20.1674 159.802 20.3218 160.214C20.5276 160.677 20.3218 160.986 19.9615 160.986C19.3439 160.986 19.3439 161.089 19.91 161.449C20.4762 161.809 20.4247 161.912 19.7556 162.17C19.2925 162.375 19.0866 162.324 19.241 162.067C19.3954 161.809 19.2925 161.449 18.9837 161.243C18.7263 161.089 18.469 161.243 18.469 161.603C18.469 162.067 18.3146 162.067 17.9544 161.5C17.2853 160.471 17.3368 159.802 18.0573 160.265C18.4176 160.523 18.469 160.42 18.2117 160.008C18.0058 159.596 18.469 158.567 19.4469 157.383C20.7849 155.685 20.8879 155.376 20.1674 155.067C19.6527 154.913 19.4469 154.913 19.6013 155.119C20.1674 155.633 19.0351 157.383 18.2117 157.383C17.8 157.383 17.5941 157.692 17.7485 158.052C17.9544 158.567 17.2853 158.773 15.2782 158.876C11.4183 159.03 11.4183 159.03 11.4183 159.802C11.4183 160.265 11.8815 160.368 12.9623 160.162C14.3518 159.957 14.4548 160.008 13.7857 160.78C13.4255 161.243 13.0138 161.398 12.9108 161.089C12.8594 160.831 12.2932 160.677 11.7786 160.831C11.0066 161.037 10.7493 160.831 10.7493 160.059C10.7493 159.287 10.492 159.03 9.77147 159.185C9.05096 159.287 8.8451 159.133 8.99949 158.67C9.15389 158.258 8.94803 157.435 8.48484 156.766C7.91873 155.994 7.66141 155.839 7.66141 156.405C7.66141 156.817 7.19822 157.486 6.63211 157.898C6.066 158.31 5.60281 158.927 5.60281 159.287C5.60281 159.648 5.34549 159.957 5.0367 159.957C4.72791 159.957 5.0367 159.082 5.65428 158.001L6.83797 156.097L5.65428 157.075C4.88231 157.795 4.62498 157.846 4.83084 157.332C5.0367 156.817 4.77938 156.56 4.11033 156.508C3.18397 156.405 3.18397 156.508 4.1618 160.368C5.49988 165.618 6.73504 169.272 9.51414 176.425C12.0359 182.807 17.6971 194.489 19.0351 195.879C19.4469 196.342 20.7335 198.401 21.8657 200.459C22.9465 202.466 24.5933 204.988 25.4168 206.069C32.9306 215.436 39.3638 222.435 43.5839 225.78C46.5688 228.147 46.6718 229.125 44.5617 233.088C42.606 236.794 38.952 242.815 37.2537 245.131C36.6361 245.954 35.5039 247.91 34.7319 249.402C34.0114 250.895 32.3131 253.725 31.0779 255.681C25.6226 264.224 24.5419 268.908 26.9607 273.642C28.2473 276.216 31.3867 279.149 34.0629 280.281C36.1729 281.156 40.2387 281.002 45.2307 279.87C50.8404 278.532 59.1777 276.73 67.618 274.98C73.7937 273.694 77.1389 272.973 90.5198 270.04C93.196 269.474 96.4383 268.65 97.7249 268.239C99.0115 267.827 101.43 267.312 103.18 267.158C105.959 266.9 107.04 267.106 113.216 269.216C130.714 275.186 142.654 278.223 157.167 280.384C177.959 283.472 203.588 282.752 221.755 278.583C223.608 278.171 227.622 277.245 230.71 276.524C240.025 274.363 250.936 270.76 258.398 267.312C259.994 266.592 261.486 265.974 261.692 265.974C262.412 265.974 280.682 256.556 283.204 254.909C284.645 253.931 287.116 252.284 288.659 251.255C296.482 246.109 312.282 232.985 315.164 229.28C315.473 228.919 317.222 226.912 319.075 224.802C330.655 211.679 340.124 196.085 347.484 177.969C350.366 170.919 353.454 159.957 354.071 154.295C354.329 152.185 354.637 149.818 354.74 149.097C354.946 147.708 353.66 147.142 353.145 148.48ZM333.331 151.568C334 151.053 334.051 151.105 333.537 152.082C333.177 152.751 333.125 153.266 333.434 153.369C333.743 153.472 333.743 153.781 333.434 154.295C333.022 154.964 332.919 154.964 332.919 154.192C332.919 153.575 332.662 153.42 332.044 153.626C331.221 153.935 331.221 153.884 331.838 153.112C332.302 152.546 332.353 152.237 331.941 152.237C331.633 152.237 331.375 151.979 331.375 151.619C331.375 151.156 331.53 151.156 331.993 151.619C332.456 152.082 332.765 152.082 333.331 151.568ZM11.7786 162.272C12.1388 162.684 12.602 162.89 12.8594 162.736C13.5284 162.324 13.4255 162.993 12.705 163.765C11.8301 164.691 9.97732 164.228 10.7493 163.302C11.161 162.787 11.161 162.53 10.6978 162.221C10.2861 161.964 10.2346 162.067 10.492 162.53C10.7493 162.993 10.6978 163.096 10.2861 162.839C9.66854 162.427 9.97732 161.5 10.6978 161.5C10.9552 161.5 11.4183 161.861 11.7786 162.272ZM16.7707 164.331C16.7707 164.64 16.3075 164.897 15.7929 164.897C14.8665 164.897 14.6092 164.485 15.1238 163.971C15.587 163.508 16.7707 163.713 16.7707 164.331Z" fill="#6B15EC"/>
<path d="M344.499 149.664C344.344 149.921 344.242 150.178 344.344 150.23C345.785 150.59 346.3 150.487 346.3 149.869C346.3 149.046 344.962 148.892 344.499 149.664Z" fill="#6B15EC"/>
<path d="M96.6956 24.5525C92.1667 25.6848 86.7629 28.8241 83.4177 32.1693C80.6386 35.0514 77.6021 40.3523 76.5728 44.2636C76.1096 45.8075 75.8523 59.034 75.595 89.707L75.2862 132.937L73.7937 137.003C69.3678 149.458 58.3028 158.207 44.8705 159.905C41.4738 160.317 33.5482 159.905 30.7177 159.185L29.2766 158.824L30.1001 161.552C31.9528 167.831 37.8198 179.925 42.5546 187.233C48.3701 196.136 59.7953 208.848 65.1476 212.399C69.6765 215.436 73.6908 222.589 73.5879 227.684C73.5879 230.515 72.8159 232.213 68.3899 239.727C67.3092 241.58 65.8681 244.153 65.1476 245.44C64.4271 246.726 63.3464 248.63 62.7803 249.711C61.751 251.461 61.751 251.615 62.5744 251.358C63.089 251.255 67.0004 250.38 71.272 249.557C80.3812 247.704 88.6156 245.851 94.3797 244.307C96.6441 243.741 100.144 242.866 102.099 242.455L105.702 241.631L110.076 243.175C112.495 244.05 116.098 245.337 118.053 246.109C121.759 247.498 131.177 250.535 139.926 253.159C145.124 254.703 154.233 256.556 164.372 258.049C173.841 259.438 194.119 259.335 204.772 257.843C213.675 256.556 221.292 255.064 226.387 253.623C231.122 252.284 244.194 248.013 247.23 246.829C252.068 244.874 264.728 238.543 268.074 236.382C269.926 235.147 273.066 233.14 275.021 231.904C290.821 221.817 309.194 201.283 317.994 183.733C322.215 175.293 328.699 159.185 328.082 158.567C327.979 158.464 326.898 158.773 325.663 159.287C324.016 159.905 321.854 160.162 317.737 160.162C311.819 160.162 309.863 159.751 303.842 157.486C294.424 153.987 287.167 146.524 283.873 137.055C282.844 134.07 282.792 132.732 282.484 89.9643C282.123 41.1757 282.278 43.8004 278.624 37.5731C276.514 33.9706 274.352 31.6032 270.647 28.8756C266.684 25.9936 265.037 25.2216 260.868 24.3467C257.678 23.6776 246.51 23.5747 178.628 23.6262C107.658 23.6776 99.732 23.7806 96.6956 24.5525ZM188.509 71.3341C192.575 72.8266 199.419 76.8923 201.735 79.1567C205.853 83.2224 209.043 88.3175 211.205 94.3389C212.543 98.0958 212.697 99.0736 212.697 105.146C212.697 110.602 212.491 112.506 211.565 115.388C207.86 127.019 199.111 135.511 187.943 138.393C182.539 139.731 175.437 139.731 170.599 138.29C168.592 137.672 166.636 136.952 166.276 136.643C165.916 136.386 164.475 135.614 163.137 134.996C157.887 132.526 151.609 124.652 149.241 117.395C145.947 107.462 150.322 95.7799 158.196 93.5669C161.49 92.6405 164.269 92.7434 166.276 93.9271C168.746 95.3682 168.798 97.3753 166.533 100.72C161.902 107.411 161.335 111.065 164.012 116.52C166.997 122.49 172.195 125.475 179.708 125.527C184.546 125.527 186.244 125.115 189.332 123.159C192.832 120.946 195.096 118.321 197.309 113.947C199.265 110.087 199.368 109.624 199.368 105.198C199.316 101.338 199.111 100.103 198.184 98.1987C194.685 91.3539 191.082 87.8543 185.37 85.6928C182.642 84.6635 181.149 84.5605 166.842 84.3032L151.3 84.0459L149.756 82.5534C147.955 80.8036 147.028 78.1789 147.491 76.0174C147.8 74.422 150.734 71.1282 152.483 70.3562C153.05 70.1504 160.769 69.996 169.518 70.0475C184.495 70.2018 185.678 70.2533 188.509 71.3341ZM133.236 145.238C141.007 147.451 142.705 148.223 147.646 151.722C152.586 155.273 155.16 157.744 158.453 162.17C163.703 169.22 166.43 177.866 166.997 189.291C167.305 194.541 167.202 195.519 166.173 198.143C162.519 207.819 149.653 208.848 144.918 199.893C143.94 198.041 143.786 196.96 143.786 191.093C143.786 185.277 143.58 183.991 142.551 181.314C139.926 174.83 137.147 171.742 130.714 168.448C128.346 167.213 127.214 166.956 122.737 166.75C116.715 166.493 113.782 167.316 108.635 170.764C105.136 173.132 103.026 175.911 101.122 180.645C99.9379 183.63 99.7835 184.814 99.7835 190.166C99.732 193.872 99.4747 197.011 99.063 198.195C96.85 204.268 90.9315 207.356 84.8072 205.554C81.6678 204.679 79.5063 202.724 77.6021 199.07C76.4699 196.96 76.367 196.136 76.4184 190.063C76.5214 176.734 80.1754 166.956 88.6156 157.383C89.2332 156.663 90.8286 155.17 92.1667 154.141C103.901 144.774 119.597 141.378 133.236 145.238ZM248.26 145.546C257.729 148.428 265.397 153.318 270.338 159.648C271.47 161.089 272.551 162.375 272.705 162.53C272.911 162.684 273.889 164.177 274.918 165.875C277.028 169.323 279.602 176.888 280.425 181.726C281.094 186.049 281.094 195.673 280.374 198.092C278.933 202.827 274.507 205.966 269.309 205.915C265.5 205.863 263.287 204.885 260.508 202.003C257.729 199.121 257.266 197.423 257.266 190.321C257.266 185.689 257.009 183.63 256.288 181.417C254.332 175.705 250.215 171.227 244.451 168.5C241.26 167.007 240.694 166.904 235.393 166.904C230.298 166.904 229.423 167.059 226.696 168.345C222.579 170.25 217.175 174.675 217.123 176.116C217.123 176.374 216.815 176.991 216.403 177.403C214.704 179.307 213.418 185.277 213.315 191.402C213.212 196.805 213.058 197.577 211.874 199.636C208.426 205.503 203.897 207.356 197.67 205.503C192.008 203.805 189.435 197.938 190.001 187.799C190.465 178.999 192.472 171.793 196.229 165.36C198.236 161.912 203.845 155.685 207.242 153.112C218.616 144.363 234.673 141.429 248.26 145.546Z" fill="#ECECEC"/>
<path d="M271.367 422.685C272.705 423.662 273.786 423.662 273.426 422.685C273.22 422.273 272.499 421.913 271.728 421.913C270.441 421.964 270.441 421.964 271.367 422.685Z" fill="#ECECEC"/>
</svg>
